<svg width="165" height="25" viewBox="0 0 165 25" fill="none" xmlns="http://www.w3.org/2000/svg">
<circle cx="12.5" cy="12.5" r="12.5" fill="#FFA800"/>
<path d="M12.5 17.0938L7.08594 20.375L8.52148 14.2227L3.76367 10.0801L10.0391 9.54688L12.5 3.76367L14.9609 9.54688L21.2363 10.0801L16.4785 14.2227L17.9141 20.375L12.5 17.0938Z" fill="white"/>
<circle cx="47.5" cy="12.5" r="12.5" fill="#FFA800"/>
<path d="M47.5 17.0938L42.0859 20.375L43.5215 14.2227L38.7637 10.0801L45.0391 9.54688L47.5 3.76367L49.9609 9.54688L56.2363 10.0801L51.4785 14.2227L52.9141 20.375L47.5 17.0938Z" fill="white"/>
<circle cx="82.5" cy="12.5" r="12.5" fill="#FFA800"/>
<path d="M82.5 17.0938L77.0859 20.375L78.5215 14.2227L73.7637 10.0801L80.0391 9.54688L82.5 3.76367L84.9609 9.54688L91.2363 10.0801L86.4785 14.2227L87.9141 20.375L82.5 17.0938Z" fill="white"/>
<circle cx="117.5" cy="12.5" r="12.5" fill="#FFA800"/>
<path d="M117.5 17.0938L112.086 20.375L113.521 14.2227L108.764 10.0801L115.039 9.54688L117.5 3.76367L119.961 9.54688L126.236 10.0801L121.479 14.2227L122.914 20.375L117.5 17.0938Z" fill="white"/>
<circle cx="152.5" cy="12.5" r="12.5" fill="#FFA800"/>
<path d="M152.5 17.0938L147.086 20.375L148.521 14.2227L143.764 10.0801L150.039 9.54688L152.5 3.76367L154.961 9.54688L161.236 10.0801L156.479 14.2227L157.914 20.375L152.5 17.0938Z" fill="white"/>
</svg>
