<svg width="174" height="175" viewBox="0 0 174 175" fill="none" xmlns="http://www.w3.org/2000/svg">
<g clip-path="url(#clip0_437_5855)">
<path d="M32.6487 93.7603C25.4933 93.7603 19.671 99.5825 19.671 106.738C19.671 113.893 25.4933 119.716 32.6487 119.716C39.8042 119.716 45.6264 113.893 45.6264 106.738C45.625 99.5825 39.8042 93.7603 32.6487 93.7603ZM32.6487 116.845C27.0762 116.845 22.5412 112.312 22.5412 106.738C22.5412 101.165 27.0762 96.6305 32.6487 96.6305C38.2212 96.6305 42.7562 101.165 42.7562 106.738C42.7547 112.312 38.2212 116.845 32.6487 116.845Z" fill="#FFA800"/>
<path d="M43.4064 88.0115C43.2571 87.8235 43.0648 87.6714 42.8352 87.5738C37.4119 85.2834 31.4648 85.2992 26.0444 87.6326C25.8148 87.7302 25.6211 87.8852 25.4747 88.0747C17.9102 91.572 13.028 99.1264 12.9807 107.509C13.0266 115.876 17.9102 123.431 25.4747 126.927C25.6211 127.117 25.8148 127.27 26.0444 127.369C28.7755 128.545 31.6227 129.14 34.5044 129.14C37.3416 129.14 40.1444 128.565 42.8381 127.428C43.0663 127.331 43.2614 127.178 43.4078 126.99C51.0469 123.52 55.9808 115.94 56.0267 107.495C55.9779 99.0618 51.0469 91.483 43.4064 88.0115ZM41.7187 124.595C41.5006 124.686 41.3126 124.831 41.1662 125.007C36.7991 126.701 32.0906 126.686 27.7235 124.96C27.5786 124.782 27.392 124.638 27.1739 124.544C20.3356 121.617 15.8911 114.926 15.8494 107.509C15.8911 100.076 20.3356 93.3846 27.1739 90.4598C27.392 90.3665 27.58 90.2216 27.7235 90.0436C32.0891 88.3158 36.7991 88.3028 41.1662 89.9963C41.3126 90.1728 41.4991 90.3163 41.7187 90.4081C48.6244 93.3085 53.112 100.02 53.1551 107.495C53.112 114.981 48.6244 121.696 41.7187 124.595Z" fill="#FFA800"/>
<path d="M62.6123 114.496H64.5827C65.7336 114.496 66.8157 114.048 67.628 113.235C68.4402 112.421 68.888 111.34 68.888 110.191V104.813C68.888 103.663 68.4402 102.582 67.628 101.768C66.8157 100.954 65.7336 100.507 64.5827 100.507H62.6123C62.1042 98.443 61.3408 96.3994 60.3405 94.4132C59.9989 93.733 59.6588 93.1102 59.3173 92.5289L60.639 91.2072C61.5015 90.3447 61.9535 89.1435 61.8818 88.0299C61.9119 86.8373 61.4685 85.7237 60.6376 84.8942L56.9938 81.2504C55.3678 79.623 52.5321 79.6245 50.9061 81.2504L49.5083 82.6482C46.9725 81.1055 44.2501 79.9746 41.3813 79.2757V77.3053C41.3813 74.9317 39.4496 73 37.076 73H31.9225C29.5488 73 27.6172 74.9317 27.6172 77.3053V79.2901C24.7326 79.9933 22.0073 81.1184 19.4916 82.6482L18.0938 81.2504C16.4678 79.623 13.6306 79.6245 12.0061 81.2504L8.36375 84.8942C7.53139 85.7251 7.08938 86.8387 7.11951 87.9122C7.04776 89.1464 7.50125 90.349 8.36232 91.2087L9.68405 92.5304C9.34106 93.113 9.00381 93.7373 8.66225 94.4161C7.67203 96.3908 6.91429 98.4344 6.40339 100.505H4.4172C3.26768 100.505 2.18561 100.953 1.37191 101.765C0.558199 102.579 0.110446 103.661 0.111881 104.811V110.189C0.111881 111.339 0.559635 112.421 1.37191 113.235C2.18561 114.046 3.26625 114.495 4.4172 114.495H6.40339C6.91429 116.566 7.67203 118.609 8.66225 120.585C9.00237 121.264 9.34106 121.888 9.68262 122.468L8.36232 123.791C7.49982 124.652 7.04632 125.855 7.11664 126.97C7.08651 128.161 7.52995 129.273 8.36088 130.106L12.0046 133.75C13.6306 135.376 16.4678 135.376 18.0938 133.75L19.4916 132.352C22.0073 133.879 24.7326 135.007 27.6172 135.71V137.695C27.6172 140.068 29.5488 142 31.9225 142H37.076C39.4482 142 41.3813 140.068 41.3813 137.695V135.724C44.2501 135.027 46.9739 133.895 49.5083 132.352L50.9047 133.748C52.5306 135.376 55.3678 135.376 56.9938 133.748L60.6376 130.104C61.4699 129.273 61.9119 128.16 61.8804 127.085C61.9521 125.854 61.4986 124.652 60.6376 123.788L59.3158 122.468C59.6574 121.888 59.9975 121.264 60.3391 120.585C61.3436 118.601 62.1042 116.558 62.6123 114.496ZM57.7788 119.297C57.2808 120.285 56.7958 121.136 56.2992 121.897C55.9261 122.465 56.005 123.217 56.4844 123.697L58.6097 125.821C58.8968 126.106 59.0432 126.499 59.0145 127.04C59.0231 127.438 58.8796 127.805 58.6097 128.078L54.966 131.722C54.425 132.264 53.4792 132.264 52.9382 131.722L50.7267 129.51C50.2416 129.027 49.4853 128.952 48.9156 129.331C46.087 131.212 42.9728 132.504 39.6663 133.168C38.9947 133.303 38.5125 133.892 38.5125 134.575V137.696C38.5125 138.487 37.8696 139.131 37.0774 139.131H31.9239C31.1332 139.131 30.4888 138.487 30.4888 137.696V134.56C30.4888 133.876 30.0081 133.287 29.3379 133.154C26.0012 132.479 22.8885 131.194 20.0871 129.329C19.8446 129.169 19.5676 129.09 19.2935 129.09C18.9233 129.09 18.5559 129.233 18.2775 129.51L16.066 131.722C15.5249 132.263 14.5792 132.264 14.0367 131.722L10.3916 128.077C10.1218 127.807 9.97825 127.439 9.98542 126.921C9.97107 126.676 10.0055 126.208 10.393 125.821L12.5184 123.697C12.9977 123.217 13.0766 122.467 12.705 121.897C12.2055 121.132 11.7219 120.283 11.2297 119.298C10.1706 117.184 9.40707 114.99 8.96076 112.775C8.82586 112.105 8.23746 111.624 7.55435 111.624H4.42151C4.03834 111.624 3.67669 111.475 3.40545 111.204C3.13565 110.934 2.9864 110.573 2.9864 110.189V104.809C2.9864 104.426 3.13565 104.066 3.40545 103.795C3.67669 103.523 4.0369 103.374 4.42151 103.374H7.55579C8.2389 103.374 8.82729 102.893 8.96219 102.223C9.40851 100.009 10.172 97.8145 11.2311 95.702C11.7248 94.7161 12.2084 93.8679 12.7078 93.1016C13.0781 92.5333 13.0006 91.7827 12.5213 91.3019L10.3959 89.1751C10.0084 88.7891 9.97538 88.3212 9.99116 87.9567C9.98255 87.562 10.1261 87.1932 10.3959 86.922L14.041 83.2782C14.5821 82.7343 15.5278 82.7358 16.0703 83.2782L18.2818 85.4897C18.7654 85.9734 19.5217 86.048 20.0915 85.6691C22.8928 83.8064 26.0055 82.5191 29.3422 81.8446C30.0124 81.7097 30.4931 81.1213 30.4931 80.4382V77.3025C30.4931 76.5117 31.1375 75.8673 31.9282 75.8673H37.0817C37.8739 75.8673 38.5168 76.5117 38.5168 77.3025V80.4238C38.5168 81.1084 38.999 81.6968 39.6706 81.8302C42.9786 82.4947 46.0927 83.7863 48.9199 85.6677C49.4882 86.0451 50.2459 85.9705 50.731 85.4883L52.9411 83.2754C53.4821 82.7343 54.4278 82.7343 54.9703 83.2754L58.6169 86.9205C58.8867 87.1903 59.0288 87.5577 59.0216 88.0758C59.046 88.4977 58.9025 88.8881 58.6169 89.1751L56.4901 91.3005C56.0108 91.7798 55.9318 92.5318 56.305 93.1001C56.8029 93.8607 57.288 94.7118 57.7846 95.7005C58.8552 97.8245 59.6215 100.019 60.0635 102.219C60.1984 102.889 60.7868 103.371 61.4685 103.371H64.5884C64.9745 103.371 65.3332 103.52 65.6045 103.792C65.8743 104.061 66.0235 104.422 66.0235 104.806V110.187C66.0235 110.571 65.8743 110.93 65.6045 111.2C65.3332 111.47 64.9745 111.62 64.5884 111.62H61.4685C60.7825 111.62 60.1941 112.102 60.0635 112.773C59.6172 114.978 58.848 117.173 57.7788 119.297Z" fill="#FFA800"/>
</g>
<g clip-path="url(#clip1_437_5855)">
<path d="M161.804 52.6533C143.656 52.6533 128.89 67.4199 128.89 85.5677C128.89 103.716 143.656 118.482 161.804 118.482C179.952 118.482 194.718 103.716 194.718 85.5677C194.715 67.4199 179.952 52.6533 161.804 52.6533ZM161.804 111.203C147.671 111.203 136.169 99.7046 136.169 85.5677C136.169 71.4345 147.671 59.9329 161.804 59.9329C175.937 59.9329 187.439 71.4345 187.439 85.5677C187.435 99.7046 175.937 111.203 161.804 111.203Z" fill="#FFA800"/>
<path d="M189.088 38.0717C188.71 37.5949 188.222 37.2091 187.64 36.9616C173.885 31.1525 158.802 31.1926 145.054 37.1108C144.472 37.3583 143.981 37.7514 143.609 38.2319C124.424 47.102 112.042 66.2617 111.922 87.5216C112.038 108.741 124.424 127.905 143.609 136.771C143.981 137.252 144.472 137.641 145.054 137.892C151.981 140.873 159.202 142.384 166.511 142.384C173.707 142.384 180.815 140.924 187.647 138.042C188.226 137.794 188.721 137.408 189.092 136.931C208.466 128.13 220.98 108.905 221.096 87.4852C220.973 66.0979 208.466 46.8763 189.088 38.0717ZM184.808 130.857C184.255 131.086 183.778 131.454 183.407 131.901C172.331 136.196 160.389 136.16 149.313 131.781C148.945 131.33 148.472 130.966 147.919 130.726C130.575 123.304 119.303 106.332 119.198 87.5216C119.303 68.6713 130.575 51.699 147.919 44.2812C148.472 44.0446 148.949 43.677 149.313 43.2256C160.385 38.8434 172.331 38.8106 183.407 43.1055C183.778 43.5532 184.251 43.9172 184.808 44.1501C202.323 51.5061 213.704 68.5293 213.813 87.4852C213.704 106.474 202.323 123.504 184.808 130.857Z" fill="#FFA800"/>
<path d="M237.799 105.244H242.796C245.716 105.244 248.46 104.108 250.52 102.045C252.58 99.9808 253.716 97.24 253.716 94.3246V80.6863C253.716 77.7673 252.58 75.0265 250.52 72.9628C248.46 70.899 245.716 69.7634 242.796 69.7634H237.799C236.511 64.5294 234.574 59.3464 232.037 54.309C231.171 52.5837 230.308 51.0041 229.442 49.5299L232.794 46.1777C234.982 43.9902 236.128 40.9437 235.946 38.1193C236.023 35.0946 234.898 32.2702 232.791 30.1664L223.549 20.925C219.426 16.7975 212.233 16.8012 208.109 20.925L204.564 24.4702C198.133 20.5574 191.228 17.6893 183.952 15.9167V10.9193C183.952 4.89913 179.053 0 173.033 0H159.963C153.942 0 149.043 4.89913 149.043 10.9193V15.9531C141.727 17.7366 134.816 20.5902 128.435 24.4702L124.89 20.925C120.766 16.7975 113.57 16.8012 109.45 20.925L100.212 30.1664C98.1012 32.2738 96.9801 35.0983 97.0566 37.8208C96.8746 40.951 98.0247 44.0011 100.209 46.1814L103.561 49.5336C102.691 51.0113 101.836 52.5946 100.969 54.3162C98.4579 59.3246 96.5361 64.5076 95.2403 69.7598H90.2029C87.2874 69.7598 84.543 70.8954 82.4793 72.9555C80.4155 75.0192 79.2799 77.7636 79.2836 80.6791V94.3209C79.2836 97.2364 80.4192 99.9808 82.4793 102.045C84.543 104.101 87.2838 105.24 90.2029 105.24H95.2403C96.5361 110.492 98.4579 115.675 100.969 120.687C101.832 122.409 102.691 123.992 103.557 125.463L100.209 128.819C98.0211 131.002 96.8709 134.053 97.0493 136.881C96.9728 139.902 98.0975 142.723 100.205 144.834L109.446 154.075C113.57 158.199 120.766 158.199 124.89 154.075L128.435 150.53C134.816 154.403 141.727 157.263 149.043 159.047V164.081C149.043 170.101 153.942 175 159.963 175H173.033C179.05 175 183.952 170.101 183.952 164.081V159.083C191.228 157.314 198.137 154.443 204.564 150.53L208.106 154.071C212.23 158.199 219.426 158.199 223.549 154.071L232.791 144.83C234.902 142.723 236.023 139.898 235.943 137.172C236.125 134.049 234.975 131.002 232.791 128.811L229.439 125.463C230.305 123.992 231.167 122.409 232.034 120.687C234.581 115.654 236.511 110.474 237.799 105.244ZM225.54 117.419C224.277 119.927 223.047 122.085 221.788 124.014C220.841 125.455 221.042 127.363 222.257 128.578L227.648 133.965C228.376 134.69 228.747 135.687 228.674 137.059C228.696 138.067 228.332 138.999 227.648 139.691L218.406 148.932C217.034 150.308 214.636 150.308 213.263 148.932L207.655 143.323C206.424 142.096 204.506 141.907 203.061 142.868C195.887 147.64 187.989 150.916 179.603 152.601C177.899 152.943 176.676 154.435 176.676 156.168V164.084C176.676 166.09 175.046 167.724 173.037 167.724H159.966C157.961 167.724 156.327 166.09 156.327 164.084V156.131C156.327 154.395 155.107 152.903 153.407 152.564C144.945 150.854 137.05 147.593 129.945 142.864C129.33 142.457 128.628 142.257 127.933 142.257C126.994 142.257 126.062 142.621 125.356 143.323L119.747 148.932C118.375 150.304 115.976 150.308 114.6 148.932L105.355 139.687C104.671 139.003 104.307 138.071 104.325 136.757C104.289 136.135 104.376 134.948 105.359 133.965L110.749 128.578C111.965 127.363 112.165 125.459 111.223 124.014C109.956 122.074 108.729 119.919 107.481 117.423C104.795 112.061 102.858 106.496 101.726 100.88C101.384 99.18 99.8919 97.9607 98.1594 97.9607H90.2138C89.242 97.9607 88.3248 97.5822 87.6368 96.8942C86.9526 96.21 86.574 95.2927 86.574 94.3209V80.6754C86.574 79.7036 86.9526 78.79 87.6368 78.1021C88.3248 77.4142 89.2383 77.0357 90.2138 77.0357H98.163C99.8956 77.0357 101.388 75.8163 101.73 74.1166C102.862 68.5004 104.798 62.9352 107.484 57.5775C108.737 55.077 109.963 52.9258 111.23 50.9822C112.169 49.5409 111.972 47.6373 110.757 46.4179L105.366 41.0238C104.383 40.0447 104.3 38.8582 104.34 37.9337C104.318 36.9327 104.682 35.9973 105.366 35.3094L114.611 26.068C115.983 24.6885 118.382 24.6922 119.758 26.068L125.367 31.6769C126.593 32.9035 128.511 33.0928 129.956 32.1319C137.061 27.4074 144.956 24.1426 153.418 22.4319C155.118 22.0897 156.337 20.5974 156.337 18.8649V10.912C156.337 8.90651 157.972 7.27225 159.977 7.27225H173.048C175.057 7.27225 176.687 8.90651 176.687 10.912V18.8285C176.687 20.5647 177.91 22.057 179.614 22.3955C188.003 24.0807 195.902 27.3565 203.072 32.1282C204.513 33.0855 206.435 32.8962 207.665 31.6733L213.271 26.0607C214.643 24.6885 217.041 24.6885 218.417 26.0607L227.666 35.3057C228.35 35.99 228.711 36.9218 228.692 38.2358C228.754 39.3058 228.39 40.2959 227.666 41.0238L222.272 46.4143C221.056 47.63 220.856 49.5372 221.802 50.9786C223.065 52.9076 224.296 55.066 225.555 57.5738C228.27 62.9607 230.214 68.5259 231.335 74.1057C231.677 75.8054 233.169 77.0284 234.898 77.0284H242.811C243.79 77.0284 244.7 77.4069 245.388 78.0948C246.072 78.7791 246.451 79.6927 246.451 80.6682V94.3136C246.451 95.2891 246.072 96.199 245.388 96.8833C244.7 97.5676 243.79 97.9498 242.811 97.9498H234.898C233.158 97.9498 231.666 99.1727 231.335 100.873C230.203 106.467 228.252 112.032 225.54 117.419Z" fill="#FFA800"/>
</g>
<g clip-path="url(#clip2_437_5855)">
<path d="M64.4539 44.7339C60.4095 44.7339 57.1187 48.0247 57.1187 52.0691C57.1187 56.1135 60.4095 59.4043 64.4539 59.4043C68.4982 59.4043 71.7891 56.1135 71.7891 52.0691C71.7883 48.0247 68.4982 44.7339 64.4539 44.7339ZM64.4539 57.782C61.3042 57.782 58.7409 55.2196 58.7409 52.0691C58.7409 48.9194 61.3042 46.3562 64.4539 46.3562C67.6036 46.3562 70.1668 48.9194 70.1668 52.0691C70.166 55.2196 67.6036 57.782 64.4539 57.782Z" fill="#FFA800"/>
<path d="M70.5344 41.4843C70.45 41.3781 70.3413 41.2921 70.2115 41.2369C67.1462 39.9424 63.7848 39.9513 60.7211 41.2702C60.5913 41.3254 60.4818 41.413 60.3991 41.52C56.1235 43.4968 53.364 47.7667 53.3372 52.5046C53.3632 57.2336 56.1235 61.5043 60.3991 63.4802C60.4818 63.5873 60.5913 63.6741 60.7211 63.7301C62.2647 64.3944 63.874 64.731 65.5028 64.731C67.1065 64.731 68.6906 64.4058 70.2132 63.7633C70.3421 63.7082 70.4524 63.6222 70.5352 63.5159C74.8529 61.5546 77.6416 57.2701 77.6676 52.4965C77.64 47.7302 74.8529 43.4465 70.5344 41.4843ZM69.5805 62.1621C69.4572 62.2132 69.3509 62.2952 69.2682 62.3949C66.7998 63.3521 64.1385 63.344 61.6701 62.3682C61.5882 62.2676 61.4828 62.1865 61.3595 62.1329C57.4944 60.479 54.9822 56.6966 54.9587 52.5046C54.9822 48.3037 57.4944 44.5213 61.3595 42.8682C61.4828 42.8154 61.589 42.7335 61.6701 42.6329C64.1377 41.6563 66.7998 41.649 69.2682 42.6062C69.3509 42.7059 69.4564 42.787 69.5805 42.839C73.4837 44.4783 76.0202 48.272 76.0445 52.4965C76.0202 56.7282 73.4837 60.5236 69.5805 62.1621Z" fill="#FFA800"/>
<path d="M81.3895 56.4543H82.5032C83.1538 56.4543 83.7654 56.2013 84.2245 55.7413C84.6836 55.2814 84.9367 54.6706 84.9367 54.0209V50.9815C84.9367 50.331 84.6836 49.7202 84.2245 49.2603C83.7654 48.8004 83.1538 48.5473 82.5032 48.5473H81.3895C81.1024 47.3808 80.6709 46.2258 80.1055 45.1031C79.9124 44.7187 79.7202 44.3666 79.5271 44.0381L80.2742 43.291C80.7617 42.8035 81.0172 42.1246 80.9767 41.4952C80.9937 40.8211 80.7431 40.1916 80.2734 39.7228L78.2139 37.6633C77.2949 36.7434 75.692 36.7443 74.773 37.6633L73.983 38.4533C72.5497 37.5814 71.0109 36.9422 69.3894 36.5472V35.4334C69.3894 34.0918 68.2976 33 66.956 33H64.0431C62.7015 33 61.6097 34.0918 61.6097 35.4334V36.5553C59.9793 36.9527 58.4389 37.5887 57.017 38.4533L56.2269 37.6633C55.3079 36.7434 53.7042 36.7443 52.786 37.6633L50.7273 39.7228C50.2569 40.1925 50.007 40.8219 50.0241 41.4286C49.9835 42.1262 50.2398 42.806 50.7265 43.2918L51.4736 44.0389C51.2797 44.3682 51.0891 44.7211 50.8961 45.1048C50.3364 46.2209 49.9081 47.376 49.6193 48.5465H48.4967C47.8469 48.5465 47.2353 48.7995 46.7754 49.2587C46.3155 49.7186 46.0624 50.3302 46.0632 50.9799V54.0201C46.0632 54.6698 46.3163 55.2814 46.7754 55.7413C47.2353 56.1996 47.8461 56.4535 48.4967 56.4535H49.6193C49.9081 57.624 50.3364 58.7791 50.8961 59.896C51.0883 60.2797 51.2797 60.6326 51.4728 60.9603L50.7265 61.7082C50.239 62.1948 49.9827 62.8746 50.0224 63.5048C50.0054 64.1781 50.2561 64.8067 50.7257 65.2772L52.7852 67.3367C53.7042 68.2557 55.3079 68.2557 56.2269 67.3367L57.017 66.5466C58.4389 67.4097 59.9793 68.0473 61.6097 68.4447V69.5666C61.6097 70.9082 62.7015 72 64.0431 72H66.956C68.2968 72 69.3894 70.9082 69.3894 69.5666V68.4528C71.0109 68.0586 72.5505 67.4186 73.983 66.5466L74.7722 67.3359C75.6912 68.2557 77.2949 68.2557 78.2139 67.3359L80.2734 65.2764C80.7439 64.8067 80.9937 64.1773 80.9759 63.5697C81.0164 62.8738 80.7601 62.1948 80.2734 61.7065L79.5263 60.9603C79.7194 60.6326 79.9116 60.2797 80.1047 59.896C80.6725 58.7742 81.1024 57.62 81.3895 56.4543ZM78.6576 59.1676C78.3761 59.7265 78.102 60.2075 77.8213 60.6374C77.6104 60.9587 77.655 61.3837 77.9259 61.6546L79.1273 62.8551C79.2895 63.0165 79.3722 63.2388 79.356 63.5446C79.3609 63.7693 79.2797 63.9769 79.1273 64.1311L77.0677 66.1906C76.7619 66.4972 76.2274 66.4972 75.9216 66.1906L74.6716 64.9406C74.3974 64.6672 73.97 64.625 73.6479 64.8392C72.0492 65.9026 70.289 66.6326 68.4201 67.0082C68.0405 67.0844 67.7679 67.417 67.7679 67.8031V69.5674C67.7679 70.0143 67.4045 70.3785 66.9568 70.3785H64.044C63.597 70.3785 63.2328 70.0143 63.2328 69.5674V67.795C63.2328 67.4081 62.9611 67.0755 62.5823 67.0001C60.6963 66.6188 58.937 65.8921 57.3536 64.8384C57.2165 64.7475 57.06 64.7029 56.905 64.7029C56.6958 64.7029 56.4881 64.784 56.3307 64.9406L55.0808 66.1906C54.775 66.4964 54.2404 66.4972 53.9338 66.1906L51.8735 64.1302C51.721 63.9777 51.6399 63.7701 51.6439 63.4773C51.6358 63.3386 51.6553 63.0741 51.8743 62.8551L53.0756 61.6546C53.3465 61.3837 53.3911 60.9595 53.1811 60.6374C52.8988 60.2051 52.6254 59.7249 52.3472 59.1684C51.7486 57.9736 51.317 56.7334 51.0648 55.4818C50.9885 55.103 50.656 54.8312 50.2698 54.8312H48.4991C48.2825 54.8312 48.0781 54.7469 47.9248 54.5936C47.7723 54.4411 47.688 54.2367 47.688 54.0201V50.9791C47.688 50.7625 47.7723 50.5589 47.9248 50.4056C48.0781 50.2523 48.2817 50.1679 48.4991 50.1679H50.2707C50.6568 50.1679 50.9893 49.8962 51.0656 49.5174C51.3179 48.2658 51.7494 47.0256 52.348 45.8316C52.627 45.2743 52.9004 44.7949 53.1827 44.3618C53.392 44.0405 53.3482 43.6163 53.0772 43.3446L51.8759 42.1424C51.6569 41.9243 51.6383 41.6598 51.6472 41.4538C51.6423 41.2307 51.7234 41.0223 51.8759 40.8689L53.9362 38.8094C54.242 38.502 54.7766 38.5028 55.0832 38.8094L56.3332 40.0594C56.6065 40.3328 57.034 40.375 57.356 40.1608C58.9394 39.1079 60.6988 38.3803 62.5847 37.9991C62.9635 37.9229 63.2352 37.5903 63.2352 37.2042V35.4318C63.2352 34.9849 63.5994 34.6207 64.0464 34.6207H66.9592C67.407 34.6207 67.7704 34.9849 67.7704 35.4318V37.1961C67.7704 37.583 68.0429 37.9156 68.4225 37.991C70.2922 38.3666 72.0524 39.0966 73.6504 40.16C73.9716 40.3733 74.3999 40.3312 74.674 40.0586L75.9232 38.8078C76.229 38.502 76.7636 38.502 77.0702 38.8078L79.1313 40.8681C79.2838 41.0206 79.3641 41.2283 79.3601 41.5211C79.3738 41.7596 79.2927 41.9802 79.1313 42.1424L77.9292 43.3438C77.6583 43.6147 77.6136 44.0397 77.8245 44.3609C78.106 44.7908 78.3802 45.2719 78.6608 45.8307C79.266 47.0312 79.6991 48.2715 79.9489 49.515C80.0252 49.8938 80.3578 50.1663 80.7431 50.1663H82.5065C82.7247 50.1663 82.9275 50.2507 83.0808 50.404C83.2333 50.5565 83.3176 50.7601 83.3176 50.9775V54.0185C83.3176 54.2359 83.2333 54.4386 83.0808 54.5911C82.9275 54.7436 82.7247 54.8288 82.5065 54.8288H80.7431C80.3553 54.8288 80.0228 55.1014 79.9489 55.4802C79.6967 56.7269 79.2619 57.9671 78.6576 59.1676Z" fill="#FFA800"/>
</g>
<defs>
<clipPath id="clip0_437_5855">
<rect width="69" height="69" fill="white" transform="translate(0 73)"/>
</clipPath>
<clipPath id="clip1_437_5855">
<rect width="175" height="175" fill="white" transform="translate(79)"/>
</clipPath>
<clipPath id="clip2_437_5855">
<rect width="39" height="39" fill="white" transform="translate(46 33)"/>
</clipPath>
</defs>
</svg>
